<?xml version="1.0" encoding="utf-8"?>
<!-- Generator: Adobe Adobe Illustrator 24.2.0, SVG Export Plug-In . SVG Version: 6.00 Build 0)  -->
<svg version="1.1" id="Layer_1" xmlns="http://www.w3.org/2000/svg" xmlns:xlink="http://www.w3.org/1999/xlink" x="0px" y="0px"
	 viewBox="0 0 172 172" style="enable-background:new 0 0 172 172;" xml:space="preserve">
<style type="text/css">
	.st0{fill:url(#SVGID_1_);}
</style>
<linearGradient id="SVGID_1_" gradientUnits="userSpaceOnUse" x1="14.1668" y1="174.6051" x2="157.8333" y2="30.9386">
	<stop  offset="0" style="stop-color:#FF1E55"/>
	<stop  offset="1" style="stop-color:#772DF0"/>
</linearGradient>
<path class="st0" d="M93.95,59.49h8.15c2.57,0,4.66-2.09,4.66-4.66V23.55c0-2.57-2.09-4.66-4.66-4.66h-8.15
	c-2.57,0-4.66,2.09-4.66,4.66v31.28C89.29,57.4,91.38,59.49,93.95,59.49z M93.48,23.55c0-0.26,0.21-0.47,0.47-0.47h8.15
	c0.26,0,0.47,0.21,0.47,0.47v31.28c0,0.26-0.21,0.47-0.47,0.47h-8.15c-0.26,0-0.47-0.21-0.47-0.47V23.55z M89.29,114.16V75.32
	c0-1.16,0.94-2.1,2.1-2.1c1.16,0,2.1,0.94,2.1,2.1v38.84c0,1.16-0.94,2.1-2.1,2.1C90.23,116.26,89.29,115.32,89.29,114.16z
	 M106.76,75.32v15.38c0,1.16-0.94,2.1-2.1,2.1c-1.16,0-2.1-0.94-2.1-2.1V75.32c0-1.16,0.94-2.1,2.1-2.1
	C105.82,73.23,106.76,74.17,106.76,75.32z M46.47,116.3c0.73,0.9,0.58,2.22-0.32,2.95l-29.75,23.94c-0.39,0.31-0.85,0.46-1.31,0.46
	c-0.61,0-1.22-0.27-1.64-0.78c-0.73-0.9-0.58-2.22,0.32-2.95l29.75-23.94C44.42,115.26,45.74,115.4,46.47,116.3z M158.23,139.93
	c0.9,0.73,1.04,2.05,0.32,2.95c-0.41,0.52-1.02,0.78-1.64,0.78c-0.46,0-0.93-0.15-1.31-0.46l-29.74-23.94
	c-0.9-0.73-1.04-2.05-0.32-2.95c0.73-0.9,2.05-1.05,2.95-0.32L158.23,139.93z M171.99,76.57c0-4.44-2-8.55-5.5-11.29l-28.7-22.46
	V17.93c0-9.37-7.62-16.99-16.99-16.99H51.19c-9.37,0-16.99,7.62-16.99,16.99v25.32L5.43,66.05C1.98,68.79,0,72.88,0,77.29v75.66
	c0,9.99,8.13,18.12,18.11,18.12h135.77c9.99,0,18.11-8.13,18.11-18.12L171.99,76.57z M133.6,17.93v78.66l-42.36,33.16
	c-3.04,2.38-7.44,2.38-10.47,0.01l-3.07-2.43V5.13h43.1C127.86,5.13,133.6,10.87,133.6,17.93z M56.54,110.54V5.13h16.97V124
	L56.54,110.54z M51.19,5.13h1.15v102.09L38.4,96.16V17.93C38.4,10.87,44.14,5.13,51.19,5.13z M153.89,166.87H18.11
	c-7.68,0-13.92-6.24-13.92-13.92V77.29c0-3.11,1.4-6.01,3.84-7.94L34.2,48.6v44.24L15.87,78.3c-0.91-0.72-2.23-0.57-2.95,0.34
	c-0.72,0.91-0.57,2.23,0.34,2.95l64.91,51.46c2.27,1.78,5.05,2.66,7.83,2.66c2.78,0,5.56-0.89,7.82-2.66l64.9-50.8
	c0.91-0.71,1.07-2.03,0.36-2.94c-0.71-0.91-2.03-1.07-2.94-0.36L137.8,93.3V48.15l26.11,20.44c2.47,1.94,3.89,4.85,3.89,7.99
	l0.01,76.37C167.81,160.62,161.56,166.87,153.89,166.87z"/>
</svg>
