<?xml version="1.0" encoding="UTF-8"?>
<svg xmlns="http://www.w3.org/2000/svg" viewBox="0 0 1024 1024">
  <path fill="currentColor" d="M794.03,315.91c-24.86,0-48.76,4.13-71.05,11.73-125.06,39.28-196.98,4.87-240.05-125.53-28.84-94.42-116.65-163.1-220.5-163.1-127.32,0-230.54,103.22-230.54,230.54,0,59.85,22.81,114.37,60.2,155.35h0c91.66,100.51,77.85,170.74-.79,242.46h0c-36.15,32.99-58.84,80.48-58.84,133.28,0,99.62,80.76,180.38,180.38,180.38,76.44,0,141.77-47.55,168.04-114.69,60.35-145.11,149.15-199.67,326.6-127.91,26.57,11.38,55.82,17.68,86.55,17.68,121.55,0,220.09-98.54,220.09-220.09s-98.54-220.09-220.09-220.09Z"/>
  <circle fill="currentColor" cx="649.7" cy="871.81" r="43.76"/>
  <circle fill="currentColor" cx="555" cy="842.42" r="23.51"/>
</svg>