<?xml version="1.0" encoding="UTF-8"?><svg id="a" xmlns="http://www.w3.org/2000/svg" viewBox="0 0 64 64"><path d="M18.9,51.73c-2.89-2.24-6.48-5.86-7.56-8.5-.7-1.71-.58-6.1,.51-8.4,.3-.64,.65-1.06,.99-1.18,.39,.12,1.22,1.37,1.67,2.05,.93,1.4,1.8,2.72,3.02,2.94,2.18,.39,4.24-1.93,6.23-4.17,1.32-1.48,2.81-3.17,3.85-3.41,.21-.02,.74,.16,.96,.32,0,.87-1.24,2.83-2.16,4.28-.88,1.4-1.67,2.67-2.05,3.77,.66-.08,1.36-.13,2.12-.15,.43-.85,1.07-1.87,1.53-2.61,1.38-2.19,2.68-4.25,2.41-5.76-.08-.43-.35-.81-.83-1.12-.61-.41-1.66-.75-2.38-.58-1.65,.38-3.22,2.14-4.87,4-1.49,1.68-3.36,3.76-4.48,3.56-.42-.07-1.3-1.4-1.77-2.12-1.08-1.63-2.2-3.32-3.78-2.81-.89,.28-1.61,1.01-2.17,2.19-1.33,2.82-1.41,7.81-.55,9.92,1.22,2.98,4.97,6.81,8.15,9.28,1.37,1.07,3.79,2.04,6.5,2.72-.56-.65-1.11-1.47-1.63-2.39-1.51-.51-2.83-1.13-3.71-1.82ZM11.66,19.49c0,.37-.07,.75-.14,1.11-.12,.65,.06,1.2,.56,1.61,.34,.28,.73,.53,1.12,.74,.49,.27,.51,.25,.41,.81-.06,.3,0,.52,.26,.7,.3,.21,.57,.46,.6,.87,.06,.79,.44,1.37,1.14,1.73,.02,0,.03,.02,.04,.03,.28,.19,.4,.46,.41,.79,0,.58-.15,1.11-.48,1.58-.23,.33-.46,.66-.69,.99,1.17,.74,2.04,2.02,2.78,3.13,.27,.41,.5,.74,.68,.99,.8-.63,2.01-1.99,2.59-2.64,1.05-1.18,2.07-2.32,3.16-3.18-.25-.14-.52-.26-.79-.37-.19-.08-.4-.19-.53-.34-.46-.54-1.04-.84-1.71-1.08-.55-.19-1.09-.46-1.57-.78-.56-.38-.93-.36-1.33,.18-.17,.23-.39,.43-.63,.58-.58,.36-2.24-.52-2.22-1.34,0-.04,0-.07,0-.11,.01-.46,.02-.92,.05-1.37,.01-.18,0-.28-.17-.39-.45-.27-.44-.54-.02-.86,.2-.15,.4-.31,.57-.49,.15-.16,.21-.36,.07-.57-.13-.2-.3-.33-.56-.27-.16,.03-.33,.07-.5,.09-.55,.08-.96-.2-1.01-.75-.06-.67,.04-1.29,.53-1.82,.79-.87,1.74-1.42,2.93-1.44,1.05-.01,1.56,.44,1.79,1.46,.08,.33,.26,.63,.43,.93,.05,.08,.23,.12,.34,.1,.07-.01,.14-.16,.16-.26,.12-.72,.24-1.44,.34-2.16,.02-.18,.1-.26,.26-.31,.78-.26,1.5-.64,2.15-1.13,.23-.17,.42-.35,.74-.2,.11,.05,.28,0,.41-.05,.24-.08,.46-.2,.69-.3,.66-.29,1.32-.54,2.07-.52,.39,.01,.78-.04,1.17-.12,.17-.03,.36-.17,.46-.31,.38-.53,.58-.58,1.12-.21,.49,.34,.99,.27,1.3-.2,.31-.48,.39-1.02,.42-1.6-.12,.03-.2,.06-.29,.07-.1,0-.19,0-.29-.02,.02-.1,.02-.2,.06-.29,.11-.21,.25-.4,.35-.61,.16-.33,.1-.5-.17-.73-.22-.19-.42-.39-.62-.6-.16-.17-.34-.25-.55-.15-.2,.1-.39,.23-.55,.38-.33,.31-.67,.51-1.13,.24-.05-.03-.23,.03-.26,.09-.27,.63-.82,.9-1.39,1.14-.38,.16-.66,.02-.72-.39-.04-.31-.01-.63,.04-.94,.03-.16,.16-.33,.29-.44,.4-.32,.83-.61,1.25-.9,.11-.08,.23-.17,.36-.21,.08-.03,.24-.03,.28,.02,.29,.38,.64,.26,1.02,.17,1.04-.24,1.22-.23,1.92,.57,.02,.02,.04,.03,.06,.05,.51-.41,1.01-.81,1.5-1.23,.05-.04,.05-.19,.02-.26-.11-.27-.24-.52-.39-.85,.29,0,.53,0,.77,0,.31,.01,.37,.1,.26,.38-.15,.4-.32,.8-.46,1.2-.05,.15-.1,.33-.08,.49,.04,.35,.11,.7,.21,1.04,.18,.62,.48,1.18,1.04,1.55,.18,.12,.31,.13,.46-.07,.44-.56,.94-1.07,1.35-1.65,.36-.5,.82-.75,1.43-.8,.14-.01,.3-.14,.39-.26,.24-.32,.43-.68,.66-1.01,.05-.07,.12-.16,.19-.18,.42-.12,.69-.39,.86-.79,.02-.04,.06-.08,.1-.12,.49,.4,.64,.39,.85-.06-.1-.03-.19-.07-.29-.1-1.58-.48-3.19-.8-4.83-.97-3.34-.34-6.62-.05-9.83,.93-5.8,1.77-10.39,5.19-13.83,10.19-.16,.24-.17,.39,.02,.6,.31,.36,.57,.76,.56,1.25Zm39.97,12.34c-1.59-.51-2.71,1.19-3.79,2.81-.47,.71-1.36,2.04-1.77,2.12-1.13,.2-2.99-1.88-4.48-3.56-1.65-1.86-3.22-3.62-4.87-4-.73-.17-1.77,.18-2.38,.59-.47,.31-.75,.69-.83,1.12-.27,1.51,1.03,3.57,2.41,5.76,.81,1.29,2.17,3.45,2.06,3.96-1.96,.98-4.62,.82-7.45,.65-2.21-.13-4.5-.27-6.7,.11-.56,.1-1.56,.49-1.9,2.02-.74,3.34,2.25,10.48,4.58,12.09,1.39,.96,3.55,1.36,5.97,1.36,4.91,0,10.89-1.64,13.68-3.61,3.68-2.6,6.97-6.34,8.19-9.31,.86-2.11,.78-7.11-.55-9.93-.55-1.18-1.28-1.91-2.17-2.19Zm.96,11.4c-1.07,2.62-4.17,6.11-7.53,8.48-3.57,2.51-14.08,4.59-17.48,2.24-.23-.16-.46-.4-.71-.7,1.8,.09,3.35,.13,4.69,.13,4.5,0,6.69-.48,8.52-1.24,.25-.11,.37-.4,.27-.65-.11-.25-.4-.38-.65-.27-2.31,.97-5.31,1.44-13.53,.99-.36-.6-.71-1.29-1.03-2.03,1.23,.1,2.91,.18,4.74,.18,3.79,0,8.21-.33,10.43-1.42,.25-.12,.35-.42,.23-.67-.12-.25-.42-.35-.67-.23-3.23,1.59-11.84,1.43-15.15,1.09-.3-.8-.55-1.62-.73-2.4,2.16,.06,4.02,.11,5.64,.11,3.77,0,6.31-.25,8.69-1.1,.26-.09,.4-.38,.3-.64-.09-.26-.38-.4-.64-.3-3.27,1.17-6.96,1.14-14.19,.93-.11-.74-.12-1.4-.01-1.9,.11-.52,.29-.55,.37-.56,.95-.16,1.95-.22,2.96-.22,1.1,0,2.22,.07,3.31,.13,3.09,.18,6,.36,8.41-.85,.47-.24,.79-.62,.93-1.12,.39-1.38-.83-3.31-2.23-5.55-.91-1.45-2.15-3.41-2.16-4.29,.22-.16,.76-.32,.93-.33,1.06,.24,2.56,1.93,3.88,3.41,1.99,2.24,4.05,4.56,6.23,4.17,1.21-.22,2.09-1.54,3.01-2.94,.45-.68,1.28-1.93,1.67-2.05,.34,.12,.69,.54,.99,1.18,1.09,2.31,1.21,6.69,.51,8.4ZM32,1C14.91,1,1,14.91,1,32s13.91,31,31,31,31-13.91,31-31S49.09,1,32,1Zm0,59.88c-15.92,0-28.88-12.96-28.88-28.88S16.08,3.12,32,3.12s28.88,12.96,28.88,28.88-12.96,28.88-28.88,28.88ZM45.83,10.42c-.02,.06-.05,.12-.06,.18-.08,.4-.29,.63-.72,.65-.28,.01-.56,.05-.83,.1-.08,.02-.2,.12-.21,.19-.07,.62-.07,1.23,.14,1.83,.13,.38,.35,.65,.81,.65,.22,0,.49,0,.6,.27,.19,.49,.54,.71,1.06,.68,.06,0,.13,.03,.19,.03,.23,0,.27,.11,.22,.3-.12,.47-.09,.92,.16,1.36,.04,.07,.03,.21-.01,.28-.17,.25-.33,.51-.55,.71-.41,.38-.84,.72-1.47,.69-.58-.03-1.09,.25-1.57,.55-.05,.03-.07,.2-.04,.27,.18,.36,.36,.72,.58,1.05,.22,.32,.46,.64,.74,.9,.34,.32,.78,.39,1.23,.27,.25-.06,.51-.15,.76-.18,.31-.04,.41-.2,.43-.5,.04-.49,.13-.97,.2-1.43,.54,.25,1.04,.48,1.54,.7,.06,.03,.15,.04,.21,.01,.3-.14,.36-.12,.4,.22,.02,.15,0,.3,.02,.45,.02,.12,.06,.26,.14,.35,.26,.3,.56,.26,.85-.08,.27-.3,.32-.29,.47,.09,.06,.17,.11,.34,.19,.5,.07,.13,.17,.3,.29,.33,.08,.02,.23-.15,.34-.24,.1-.09,.17-.2,.3-.35,.05,.17,.08,.27,.11,.38,.13,.5,.37,.7,.88,.75,.94,.1,1.67,.93,1.65,1.9-.03,0-.07,.02-.1,.01-.61-.03-1.21-.06-1.82-.1-.14-.01-.29-.08-.4-.16-.43-.31-.88-.61-1.27-.97-.64-.59-1.38-.78-2.22-.75-.22,0-.46,0-.66-.07-1.07-.36-2.13-.33-3.23-.05-.85,.22-1.52,.6-2.01,1.34-.13,.2-.39,.35-.62,.43-.87,.31-1.46,.89-1.78,1.74-.04,.11-.02,.25,0,.38,.02,.19,.11,.39,.08,.57-.08,.54-.19,1.08-.32,1.62-.07,.29-.14,.59-.21,.89,.92,.81,1.79,1.79,2.69,2.8,.58,.65,1.79,2.01,2.58,2.64,.18-.25,.41-.58,.68-.99,1.11-1.68,2.49-3.75,4.8-3.75,.38,0,.76,.06,1.14,.18,1.4,.44,2.52,1.51,3.31,3.19,.69,1.47,1.07,3.34,1.21,5.2,.54-2.01,.87-4.16,.88-6.45,.07-9.68-5.38-17.61-11.78-21.54Z" fill="currentColor"/></svg>